# xmcd
#
# Track frame offsets:
#	150
#	23530
#	46362
#	74270
#	88252
#	113017
#	131917
#	149535
#	161397
#	178127
#
# Disc length: 2610 seconds
# Revision: 6
# Processed by: cddbd v1.5.2PL0 Copyright (c) Steve Scherf et al.
# Submitted via: dBpowerAMP V12.0
#
DISCID=8a0a300a
DTITLE=Albert Collins - Iceman
DYEAR=1991
DGENRE=Blues
TTITLE0=Mr. Collins, Mr. Collins
TTITLE1=Iceman
TTITLE2=Don't Mistake Kindness for Weakness
TTITLE3=Travelin' South
TTITLE4=Put the Shoe on the Other Foot
TTITLE5=I'm Beginning to Wonder
TTITLE6=Head Rag
TTITLE7=The Hawk
TTITLE8=Blues for Gabe
TTITLE9=Mr. Collins, Mr. Collins
EXTD=
EXTT0=
EXTT1=
EXTT2=
EXTT3=
EXTT4=
EXTT5=
EXTT6=
EXTT7=
EXTT8=
EXTT9=
PLAYORDER=
